<?xml version="1.0" encoding="UTF-8"?>
<!-- Generator: Adobe Illustrator 25.2.0, SVG Export Plug-In . SVG Version: 6.00 Build 0) -->
<svg xmlns="http://www.w3.org/2000/svg" xmlns:xlink="http://www.w3.org/1999/xlink" version="1.1" id="Layer_1" x="0px" y="0px" viewBox="0 0 400 245" style="enable-background:new 0 0 400 245;" xml:space="preserve"> <style type="text/css"> .st0{fill:#0F0F0F;} .st1{fill:#DA1F28;} .st2{fill:#F2C31D;} .st3{fill:#24A149;} </style> <g> <polygon class="st0" points="78.2,0.7 321.8,0.7 321.8,244.3 78.2,244.3 78.2,0.7 "/> <path class="st1" d="M125.8,52.8c7.6,0,15.1,0,22.7,0c0,2.2,0,4.5,0,6.7c-5.1,0-10.1,0-15.2,0c0,2.3,0,4.5,0,6.8 c1.5,0.2,3.1,0.1,4.6,0.1c2.8,0,5.6,0,8.4,0c0,2.2,0,4.4,0,6.5c-2.5,0.2-5,0.1-7.4,0.1c-1.8,0.1-3.7,0-5.5,0.1c0,4.6,0,9.3,0,13.9 c-2.5,0-5,0-7.5,0C125.8,75.6,125.8,64.2,125.8,52.8L125.8,52.8z"/> <path class="st1" d="M161.8,60.8c2.7-0.4,5.7-0.3,8.2,1c2.1,1,3.8,2.8,4.8,4.9c1.1,2.3,1.6,4.7,1.5,7.2c0.1,3.2-0.6,6.5-2.5,9.1 c-1.4,2-3.6,3.5-6,4.1c-2,0.5-4.2,0.5-6.3,0.2c-2.2-0.4-4.3-1.4-5.8-3c-1.5-1.6-2.6-3.7-3.1-5.9c-0.6-2.7-0.6-5.5-0.1-8.2 c0.4-2.2,1.4-4.4,2.9-6C157.1,62.4,159.4,61.2,161.8,60.8L161.8,60.8z"/> <path class="st1" d="M181.5,61.2c2.4,0,4.9,0,7.3,0c0,1.9,0,3.8,0,5.7c0.6-1.7,1.1-3.3,2.6-4.4c1.6-1.3,3.4-1.3,5.4-1.3 c0,2.3,0,4.6,0,6.9c-1.7,0-3.4,0-5.1,0.3c-0.9,0.2-1.7,0.5-2.3,1.2c-0.6,0.8-0.7,1.9-0.7,2.9c0,4.8,0,9.6,0,14.4 c-2.4,0-4.9,0-7.3,0C181.5,78.4,181.4,69.8,181.5,61.2L181.5,61.2z"/> <path class="st0" d="M163.1,66.6c1.7-0.4,3.8,0,4.8,1.6c0.9,1.4,0.9,2.8,0.8,4.3c0,1.7,0,3.3,0,5c-0.1,1.6-0.8,3.1-2.3,3.8 c-1.8,0.8-4.4,0.5-5.6-1.3c-1.1-1.6-0.9-4-0.9-5.8c0-1.6-0.1-3.4,0.4-4.9C160.7,67.9,161.8,66.9,163.1,66.6L163.1,66.6z"/> <path class="st2" d="M213.4,97.9c1.2-0.2,2.5-0.2,3.6,0.2c1.2,0.5,2,1.7,1.9,3c0,1.1,0.2,2.5-0.5,3.5c-0.6,0.8-1.5,1.3-2.5,1.4 c-1.2,0.1-2.5,0.1-3.6-0.3c-1.1-0.5-1.8-1.7-1.8-2.8c0-1.1-0.1-2.5,0.5-3.4C211.6,98.5,212.5,98,213.4,97.9L213.4,97.9z"/> <path class="st2" d="M252.7,98.1c2.4,0,4.9,0,7.3,0c0,10.2,0,20.3,0,30.5c1.1,0,2.1,0,3.2,0c0.1,1.9,0,3.9,0,5.8 c-2.1,0-4.4,0.2-6.4-0.4c-1.3-0.4-2.4-1.1-3.1-2.2c-0.9-1.4-1.1-3.1-1.1-4.7C252.7,117.4,252.7,107.8,252.7,98.1L252.7,98.1z"/> <path class="st2" d="M125.8,100.3c4.7-0.1,9.5,0,14.2,0c1.5,0,3.2-0.1,4.7,0.3c1.9,0.5,3.9,1.5,5.1,3.1c1.5,1.9,2.4,4.3,2.5,6.8 c0.1,2.8-0.4,5.6-2.1,7.8c-1,1.4-2.4,2.2-4,2.9c2.2,4.5,4.5,8.9,6.6,13.3c-2.8,0.1-5.6,0-8.4,0c-2-4.2-4-8.3-5.9-12.5 c-1.8,0-3.5,0-5.3,0c0,4.2,0,8.3,0,12.5c-2.5,0-5,0-7.5,0c0-10.6,0-21.1,0-31.7C125.8,101.9,125.8,101.1,125.8,100.3L125.8,100.3z"/> <path class="st0" d="M134.1,106.7c2.1,0,4.1,0,6.2,0c1.2,0,2.6,0.1,3.5,1.1c0.9,0.9,0.8,2.1,0.8,3.3c0,1.1,0.1,2.3-0.6,3.2 c-0.7,0.9-1.7,1.2-2.7,1.2c-2.6,0-5.3,0-7.9,0c0-2.8,0-5.5,0-8.3C133.3,106.8,133.7,106.7,134.1,106.7L134.1,106.7z"/> <path class="st2" d="M171.7,108.5c2.2,0.5,4.3,1.5,5.6,3.4c1.2,1.7,1.5,3.6,1.5,5.7c0,3.7,0,7.5,0,11.2c0.8,0,1.6,0,2.3,0 c0,1.9,0,3.8,0,5.7c-1.5,0-3.1,0.1-4.6,0c-1.2-0.1-2.4-0.6-3.1-1.6c-0.8-0.9-1-1.9-1.4-3c-0.4,1-0.7,1.9-1.4,2.8 c-1.2,1.4-3.1,2.2-4.9,2.4c-2.2,0.2-4.6,0-6.5-1.3c-1.7-1.1-2.6-3-2.8-4.9c-0.3-2.2,0.1-4.6,1.7-6.3c1.2-1.3,3.1-2.1,4.8-2.5 c2.8-0.6,5.7-0.5,8.5-0.5c0-1.2,0.1-2.7-0.6-3.8c-0.4-0.8-1.1-1.3-2-1.5c-1.2-0.3-2.6-0.3-3.8,0.1c-1.4,0.4-2.5,1.7-3.4,2.7 c-1.5-1.3-2.9-2.6-4.4-3.9c1.5-2.2,3.6-3.9,6.3-4.5C166.3,107.9,169.1,107.9,171.7,108.5L171.7,108.5z"/> <path class="st2" d="M197.1,108.1c2.4,0.1,4.8,0.8,6.7,2.5c1.4,1.2,2.2,2.6,2.9,4.3c-2,0.9-4,1.7-6,2.6c-0.5-1.4-1.1-2.6-2.5-3.2 c-1.8-0.7-4.2-0.4-5.3,1.3c-1.2,1.9-0.9,3.8-0.9,5.9c0.1,2.1-0.3,4.1,0.9,5.9c1.1,1.8,3.7,2,5.5,1.3c1.5-0.7,2.1-2,2.7-3.4 c1.9,0.8,3.8,1.7,5.7,2.4c-0.6,1.6-1.3,3.1-2.5,4.3c-1.6,1.7-3.9,2.6-6.2,2.8c-2.5,0.3-5,0-7.3-1c-2.2-1-4-2.8-5-5 c-1.1-2.3-1.5-4.8-1.4-7.3c-0.1-2.5,0.3-4.9,1.3-7.2c0.9-2.1,2.5-3.9,4.6-5C192.4,108.3,194.8,108,197.1,108.1L197.1,108.1z"/> <path class="st2" d="M238.5,108.5c2.1,0.4,4.3,1.5,5.6,3.3c1.2,1.7,1.6,3.7,1.6,5.7c0,3.7,0,7.4,0,11.1c0.8,0,1.6,0,2.3,0 c0.1,1.9,0,3.9,0,5.8c-1.6,0-3.2,0.1-4.7-0.1c-1.3-0.1-2.4-0.8-3.2-1.8c-0.6-0.8-0.9-1.8-1.2-2.8c-0.4,1.1-0.8,2.1-1.6,3 c-1.5,1.7-4,2.3-6.2,2.2c-2.1,0-4.3-0.5-5.9-2.1c-1.8-1.7-2.3-4.5-1.9-6.8c0.2-1.8,1.1-3.4,2.6-4.5c1.7-1.2,3.8-1.8,5.9-2 c2.1-0.2,4.3-0.2,6.4-0.2c0-1.1,0.1-2.4-0.3-3.4c-0.4-0.9-1-1.5-1.9-1.8c-1.3-0.4-2.8-0.4-4.1,0.1c-1.4,0.5-2.4,1.7-3.3,2.7 c-1.4-1.3-2.9-2.6-4.4-3.9c1.4-2.4,3.9-4.1,6.6-4.6C233.3,107.9,236,108,238.5,108.5L238.5,108.5z"/> <path class="st2" d="M211.1,108.6c2.4,0,4.9,0,7.3,0c0,8.6,0,17.2,0,25.8c-2.4,0-4.9,0-7.3,0C211.1,125.8,211.1,117.2,211.1,108.6 L211.1,108.6z"/> <path class="st0" d="M166.4,123.8c1.7-0.3,3.4-0.1,5.1-0.2c0,1.1,0.1,2.3,0,3.4c-0.1,0.9-0.5,1.6-1.3,2.1c-1.2,0.7-2.6,0.8-4,0.7 c-1-0.1-1.9-0.7-2.2-1.7c-0.2-0.8-0.2-1.8,0.1-2.6C164.5,124.4,165.5,124,166.4,123.8L166.4,123.8z"/> <path class="st0" d="M238.3,123.6c0,1.1,0,2.3,0,3.4c-0.1,0.8-0.4,1.5-1.1,1.9c-1.2,0.9-2.9,1-4.3,0.8c-1-0.2-1.9-0.8-2.1-1.8 c-0.3-1.4-0.2-3.1,1.3-3.8C233.9,123.3,236.3,123.7,238.3,123.6L238.3,123.6z"/> <path class="st3" d="M226.5,145.2c1.2-0.3,2.7-0.4,3.8,0c1.2,0.3,2.1,1.3,2.3,2.5c0.2,0.9,0.2,2,0,2.9c-0.2,1.2-1.1,2.1-2.3,2.5 c-1.2,0.3-2.6,0.3-3.8,0c-1.1-0.3-2-1.3-2.2-2.5c-0.2-1-0.2-2.1,0-3.1C224.6,146.4,225.4,145.6,226.5,145.2L226.5,145.2z"/> <path class="st3" d="M128,147.5c6,0,11.9,0,17.9,0c0,7.5,0,14.9,0,22.4c0,1.6,0.1,3-0.3,4.6c-0.4,1.8-1.2,3.4-2.5,4.7 c-1.4,1.3-3.1,2.2-4.9,2.7c-1.8,0.4-3.7,0.5-5.5,0.3c-2.6-0.3-5.1-1.5-6.8-3.5c-1.5-1.7-2.2-3.8-2.6-6.1c2.3-0.4,4.7-0.9,7-1.4 c0.3,1.1,0.6,2.2,1.3,3.1c1.5,1.9,5,1.7,6.2-0.5c0.5-0.9,0.5-1.8,0.5-2.7c0-5.8,0-11.7,0-17.5c-3.4,0-6.9,0-10.3,0 C128,151.5,128,149.5,128,147.5L128,147.5z"/> <path class="st3" d="M208.4,149c2.2-0.1,4.3,0,6.5,0c0,2.3,0,4.6,0,6.9c1.7,0,3.4,0,5.1,0.1c0,1.9,0,3.8,0,5.7 c-1.7,0.1-3.4,0-5.1,0c0,4.7,0,9.5,0,14.2c1.6,0.1,3.1,0,4.7,0c0,1.9,0,3.8,0,5.7c-2.1,0-4.2,0.1-6.3-0.1c-2-0.3-3.8-1.3-4.8-3.1 c-0.8-1.5-0.9-3.1-1-4.8c0-4,0-8,0-12c-1.2,0-2.4,0-3.6,0c0-1.9,0-3.8,0-5.7c1,0,2,0,2.9-0.2c0.7-0.1,1.1-0.7,1.3-1.4 C208.6,152.6,208.3,150.7,208.4,149L208.4,149z"/> <path class="st3" d="M194.8,155.8c2.4,0.5,4.3,1.9,6.1,3.6c-1.4,1.5-2.8,2.9-4.3,4.4c-1.6-1.4-3.3-2.6-5.5-2.6 c-1.1,0-2.4-0.1-3.2,0.7c-0.6,0.5-0.6,1.6-0.3,2.3c0.4,0.9,1.4,1.2,2.4,1.3c2.7,0.4,5.8,0.6,8.2,2.1c1.6,1,2.8,2.6,3.1,4.5 c0.2,1.8,0.1,3.6-0.7,5.2c-1.2,2.4-3.7,3.8-6.2,4.5c-2.6,0.6-5.3,0.6-7.9,0.1c-2.8-0.6-5-2.2-7-4.2c1.4-1.6,2.9-3,4.3-4.5 c1.6,1.6,3.6,3.1,5.9,3.2c1.1,0,2.5,0.1,3.5-0.4c1.1-0.6,1.4-2.2,0.6-3.1c-0.7-0.7-1.8-0.8-2.7-0.9c-2.4-0.2-5-0.5-7.1-1.7 c-1.6-0.8-2.9-2.2-3.4-4c-0.6-2.3-0.5-4.9,0.9-6.9c1.3-2,3.5-3.2,5.8-3.7C189.7,155.2,192.5,155.3,194.8,155.8L194.8,155.8z"/> <path class="st3" d="M250.7,155.4c2.1,0.2,4.2,0.9,5.8,2.4c1.4,1.1,2.2,2.6,2.9,4.3c-2,0.9-4,1.8-6,2.6c-0.5-1.2-0.9-2.2-2-2.9 c-1.8-1.1-4.6-0.8-5.8,1.1c-1.2,1.8-0.9,4-0.9,6c0,2-0.2,4.3,1,5.9c1.2,1.7,3.6,1.9,5.4,1.1c1.5-0.7,2.1-2,2.7-3.4 c1.9,0.8,3.8,1.6,5.7,2.5c-0.5,1.6-1.3,3-2.5,4.2c-1.6,1.7-3.8,2.5-6.1,2.8c-2.2,0.2-4.5,0.1-6.6-0.7c-2.2-0.8-4-2.3-5.2-4.3 c-1.5-2.5-2-5.4-2-8.3c0-2.6,0.4-5.2,1.5-7.6c1.1-2.2,2.9-4.1,5.2-5C246,155.3,248.3,155.3,250.7,155.4L250.7,155.4z"/> <path class="st3" d="M272.8,155.4c2.3-0.1,4.7-0.1,6.9,0.9c2.2,1,4,2.7,5.1,4.9c1.5,3,1.6,6.1,1.5,9.4c-5.5,0-11,0-16.5,0 c0.1,1.6,0.3,3.1,1.4,4.3c1.5,1.5,3.8,1.6,5.7,1.3c2-0.4,3.2-1.7,4.7-2.9c0.4,0.2,0.7,0.7,1,1.1c0.9,1.2,1.8,2.3,2.7,3.5 c-2,2.2-4.7,3.5-7.6,4c-2.1,0.3-4.2,0.4-6.3,0c-2.7-0.5-5.3-2.1-6.9-4.4c-1.5-2.2-2.2-4.8-2.3-7.5c-0.1-2.7,0.1-5.6,1.2-8.1 c0.9-2.1,2.4-4,4.4-5.1C269.4,156,271.1,155.5,272.8,155.4L272.8,155.4z"/> <path class="st3" d="M152.3,155.9c2.4-0.1,4.9,0,7.3,0c0,5.1,0,10.2,0,15.4c0,1.3,0.2,2.9,1,3.9c0.6,0.8,1.5,1,2.5,1 c1.6,0,3.1-0.5,4-1.9c0.5-0.7,0.5-1.5,0.6-2.4c0-5.4,0-10.7,0-16.1c2.4,0,4.9,0,7.3,0c0,8.6,0,17.2,0,25.7c-2.4,0-4.9,0-7.3,0 c0-1.5,0-2.9,0-4.4c-0.7,1.3-1.2,2.5-2.3,3.4c-1.9,1.5-4.5,1.8-6.8,1.4c-1.9-0.3-3.6-1.3-4.6-2.9c-1.5-2.2-1.7-4.9-1.7-7.5 c0-4.4,0-8.9,0-13.3C152.3,157.6,152.2,156.8,152.3,155.9L152.3,155.9z"/> <path class="st3" d="M224.8,155.9c2.4-0.1,4.8,0,7.3,0c0.1,1.6,0.1,3.1,0.1,4.7c0,5.5,0,10.9,0,16.4c0,1.6,0,3.1-0.1,4.7 c-2.4,0-4.9,0-7.3,0c0-7.7,0-15.5,0-23.2C224.8,157.6,224.7,156.8,224.8,155.9L224.8,155.9z"/> <path class="st0" d="M277.6,162.2c0.9,1.2,1.1,2.6,1.1,4.1c-3,0-5.9,0-8.9,0c0-1.8,0.4-3.6,1.9-4.7 C273.4,160.4,276.4,160.4,277.6,162.2L277.6,162.2z"/> </g> </svg>